HIERARCHY
ROOT hip
{
  OFFSET 0 0 0
  CHANNELS 6 Xposition Yposition Zposition Zrotation Yrotation Xrotation
  JOINT abdomen
  {
    OFFSET 0 20.6881 -0.73152
    CHANNELS 3 Zrotation Xrotation Yrotation
    JOINT chest
    {
      OFFSET 0 11.7043 -0.48768
      CHANNELS 3 Zrotation Xrotation Yrotation
      JOINT neck
      {
        OFFSET 0 22.1894 -2.19456
        CHANNELS 3 Zrotation Xrotation Yrotation
        JOINT head
        {
          OFFSET -0.24384 7.07133 1.2192
          CHANNELS 3 Zrotation Xrotation Yrotation
          JOINT leftEye
          {
            OFFSET 4.14528 8.04674 8.04672
            CHANNELS 3 Zrotation Xrotation Yrotation
            End Site
            {
              OFFSET 1 0 0
            }
          }
          JOINT rightEye
          {
            OFFSET -3.6576 8.04674 8.04672
            CHANNELS 3 Zrotation Xrotation Yrotation
            End Site
            {
              OFFSET 1 0 0
            }
          }
        }
      }
      JOINT rCollar
      {
        OFFSET -2.68224 19.2634 -4.8768
        CHANNELS 3 Zrotation Xrotation Yrotation
        JOINT rShldr
        {
          OFFSET -8.77824 -1.95073 1.46304
          CHANNELS 3 Zrotation Xrotation Yrotation
          JOINT rForeArm
          {
            OFFSET -28.1742 -1.7115 0.48768
            CHANNELS 3 Zrotation Xrotation Yrotation
            JOINT rHand
            {
              OFFSET -22.5879 0.773209 7.07136
              CHANNELS 3 Zrotation Xrotation Yrotation
              JOINT rThumb1
              {
                OFFSET -1.2192 -0.487915 3.41376
                CHANNELS 3 Zrotation Xrotation Yrotation
                JOINT rThumb2
                {
                  OFFSET -3.37035 -0.52449 3.41376
                  CHANNELS 3 Zrotation Xrotation Yrotation
                  End Site
                  {
                    OFFSET -1.78271 -1.18214 1.43049
                  }
                }
              }
              JOINT rIndex1
              {
                OFFSET -7.75947 0.938293 5.60832
                CHANNELS 3 Zrotation Xrotation Yrotation
                JOINT rIndex2
                {
                  OFFSET -2.54057 -0.884171 1.56538
                  CHANNELS 3 Zrotation Xrotation Yrotation
                  End Site
                  {
                    OFFSET -1.62519 -0.234802 1.16502
                  }
                }
              }
              JOINT rMid1
              {
                OFFSET -8.24714 1.18213 3.41376
                CHANNELS 3 Zrotation Xrotation Yrotation
                JOINT rMid2
                {
                  OFFSET -3.10165 -0.590103 1.0647
                  CHANNELS 3 Zrotation Xrotation Yrotation
                  End Site
                  {
                    OFFSET -2.48547 -0.328903 0.83742
                  }
                }
              }
              JOINT rRing1
              {
                OFFSET -8.82822 0.546677 1.51678
                CHANNELS 3 Zrotation Xrotation Yrotation
                JOINT rRing2
                {
                  OFFSET -2.60934 -0.819778 -0.0198488
                  CHANNELS 3 Zrotation Xrotation Yrotation
                  End Site
                  {
                    OFFSET -2.33842 -0.294052 0.168128
                  }
                }
              }
              JOINT rPinky1
              {
                OFFSET -8.27202 -0.0477905 -0.4584
                CHANNELS 3 Zrotation Xrotation Yrotation
                JOINT rPinky2
                {
                  OFFSET -1.82734 -0.647385 -0.700984
                  CHANNELS 3 Zrotation Xrotation Yrotation
                  End Site
                  {
                    OFFSET -1.69225 -0.51767 -0.607171
                  }
                }
              }
            }
          }
        }
      }
      JOINT lCollar
      {
        OFFSET 2.68224 19.2634 -4.8768
        CHANNELS 3 Zrotation Xrotation Yrotation
        JOINT lShldr
        {
          OFFSET 8.77824 -1.95073 1.46304
          CHANNELS 3 Zrotation Xrotation Yrotation
          JOINT lForeArm
          {
            OFFSET 28.1742 -1.7115 0.48768
            CHANNELS 3 Zrotation Xrotation Yrotation
            JOINT lHand
            {
              OFFSET 22.5879 0.773209 7.07136
              CHANNELS 3 Zrotation Xrotation Yrotation
              JOINT lThumb1
              {
                OFFSET 1.2192 -0.487915 3.41376
                CHANNELS 3 Zrotation Xrotation Yrotation
                JOINT lThumb2
                {
                  OFFSET 3.37035 -0.52449 3.41376
                  CHANNELS 3 Zrotation Xrotation Yrotation
                  End Site
                  {
                    OFFSET 1.78271 -1.18214 1.43049
                  }
                }
              }
              JOINT lIndex1
              {
                OFFSET 7.75947 0.938293 5.60832
                CHANNELS 3 Zrotation Xrotation Yrotation
                JOINT lIndex2
                {
                  OFFSET 2.54057 -0.884171 1.56538
                  CHANNELS 3 Zrotation Xrotation Yrotation
                  End Site
                  {
                    OFFSET 1.62519 -0.234802 1.16502
                  }
                }
              }
              JOINT lMid1
              {
                OFFSET 8.24714 1.18213 3.41376
                CHANNELS 3 Zrotation Xrotation Yrotation
                JOINT lMid2
                {
                  OFFSET 3.10165 -0.590103 1.0647
                  CHANNELS 3 Zrotation Xrotation Yrotation
                  End Site
                  {
                    OFFSET 2.48547 -0.328903 0.83742
                  }
                }
              }
              JOINT lRing1
              {
                OFFSET 8.82822 0.546677 1.51678
                CHANNELS 3 Zrotation Xrotation Yrotation
                JOINT lRing2
                {
                  OFFSET 2.60934 -0.819778 -0.0198488
                  CHANNELS 3 Zrotation Xrotation Yrotation
                  End Site
                  {
                    OFFSET 2.33842 -0.294052 0.168128
                  }
                }
              }
              JOINT lPinky1
              {
                OFFSET 8.27202 -0.0477905 -0.4584
                CHANNELS 3 Zrotation Xrotation Yrotation
                JOINT lPinky2
                {
                  OFFSET 1.82734 -0.647385 -0.700984
                  CHANNELS 3 Zrotation Xrotation Yrotation
                  End Site
                  {
                    OFFSET 1.69225 -0.51767 -0.607171
                  }
                }
              }
            }
          }
        }
      }
    }
  }
  JOINT rButtock
  {
    OFFSET -8.77824 4.35084 1.2192
    CHANNELS 3 Zrotation Xrotation Yrotation
    JOINT rThigh
    {
      OFFSET 0 -1.70687 -2.19456
      CHANNELS 3 Zrotation Xrotation Yrotation
      JOINT rShin
      {
        OFFSET 0 -36.8199 0.73152
        CHANNELS 3 Zrotation Xrotation Yrotation
        JOINT rFoot
        {
          OFFSET 0.73152 -45.1104 -5.12064
          CHANNELS 3 Zrotation Xrotation Yrotation
          End Site
          {
            OFFSET -1.1221 -3.69964 12.103
          }
        }
      }
    }
  }
  JOINT lButtock
  {
    OFFSET 8.77824 4.35084 1.2192
    CHANNELS 3 Zrotation Xrotation Yrotation
    JOINT lThigh
    {
      OFFSET 0 -1.70687 -2.19456
      CHANNELS 3 Zrotation Xrotation Yrotation
      JOINT lShin
      {
        OFFSET 0 -36.8199 0.73152
        CHANNELS 3 Zrotation Xrotation Yrotation
        JOINT lFoot
        {
          OFFSET -0.73152 -45.1104 -5.12064
          CHANNELS 3 Zrotation Xrotation Yrotation
          End Site
          {
            OFFSET 1.1221 -3.69964 12.103
          }
        }
      }
    }
  }
}
MOTION
Frames:	5
Frame Time:	0.03333
0.0 0.0 0.0 0.0 0.0 0.0 0.0 0.0 0.0 0.0 0.0 0.0 0.0 0.0 0.0 0.0 0.0 0.0 0.0 0.0 0.0 0.0 0.0 0.0 0.0 0.0 0.0 0.0 0.0 0.0 0.0 0.0 0.0 0.0 0.0 0.0 0.0 0.0 0.0 0.0 0.0 0.0 0.0 0.0 0.0 0.0 0.0 0.0 0.0 0.0 0.0 0.0 0.0 0.0 0.0 0.0 0.0 0.0 0.0 0.0 0.0 0.0 0.0 0.0 0.0 0.0 0.0 0.0 0.0 0.0 0.0 0.0 0.0 0.0 0.0 0.0 0.0 0.0 0.0 0.0 0.0 0.0 0.0 0.0 0.0 0.0 0.0 0.0 0.0 0.0 0.0 0.0 0.0 0.0 0.0 0.0 0.0 0.0 0.0 0.0 0.0 0.0 0.0 0.0 0.0 0.0 0.0 0.0 0.0 0.0 0.0 0.0 0.0 0.0 0.0 0.0 0.0 0.0 0.0 0.0 0.0 0.0 0.0 0.0 0.0 0.0 0.0 0.0 0.0 0.0 0.0 0.0
-5.3371 67.9222 2.3157 2.396874 27.017389 5.86927 -15.547685 -4.881079 -180.0 3.838412 3.797233 177.651174 -7.890875 13.181969 -105.570432 -5.516726 20.922707 97.008696 -0.00284 0.0 -0.002326 0.002895 0.0 0.002683 4.209391 -43.44314 -8.38309 -35.30273 37.461825 29.311132 -1.989738 -27.098757 23.278787 -5.018839 -2.339701 -2.299136 -167.619777 -5.296261 89.841748 33.672466 -63.460294 28.425276 -64.085968 43.039578 52.301743 -82.312974 51.32215 59.859302 -167.375298 -28.008378 145.269653 -7.561398 26.103269 6.426837 0.000247 -0.060973 -0.0183 7.842358 23.995223 3.532647 -26.564176 -38.861137 -25.605334 -163.562625 66.409301 -148.889179 85.5373 68.183151 -88.689024 -12.651398 -71.136123 -8.604873 -78.005295 41.864018 -75.602554 112.389626 72.5413 -91.577817 4.036259 3.931036 -0.754454 151.491999 -60.470085 -116.848893 19.171043 24.114344 -13.381037 146.147556 12.293507 -106.979831 -0.540719 -1.590018 0.294842 88.699427 64.082827 -80.423829 67.606968 -72.07462 84.373893 67.584226 83.187512 -85.339051 -4.12109 11.850814 -3.737822 2.16484 -11.0751 3.887585 -9.1e-05 1.9e-05 -4.6e-05 7.525794 -29.550018 14.995933 48.545824 26.75159 29.935844 -37.578812 78.626632 -47.619139 -179.999758 75.749623 -0.000213 -155.185705 50.78755 149.173278 77.261776 -38.743158 -127.684731 151.927527 -40.745635 -33.715451
-8.475000000000001 68.7988 3.3111 2.074431 27.263699 6.862068 -14.962479 -0.694629 -0.823603 -3.386702 -8.123508 -2.110516 10.868828 8.481339 100.993466 1.731237 -3.608064 -114.709832 0.000933 -0.0 -0.000873 0.001472 -0.0 -0.002081 -159.22145 -48.725172 170.566691 31.635826 -13.330786 31.938541 43.050064 -1.337997 -37.286936 -154.075141 49.924119 128.165632 -157.999032 4.194589 88.450414 102.507779 -58.127823 71.979798 -129.576983 16.761072 108.785515 94.841015 -69.377472 44.949824 -8.416631 20.880337 5.645775 -163.251334 -4.939102 143.356799 -71.923507 72.973328 89.77224 -159.825735 -1.691249 176.459195 -130.894312 -20.731501 -128.472156 47.717787 80.591327 -10.570096 -2.530445 -18.881212 3.793538 -178.689282 -45.52415 -157.193908 172.39682 -1.357118 69.756247 7.041137 18.873433 -0.174418 0.441019 0.435551 -0.068978 -10.334478 -14.598586 7.735891 -169.568992 -65.842764 -109.956357 175.233481 -44.156976 -112.418097 29.516436 47.608389 -23.79545 -18.156901 -42.074974 0.070479 75.943455 -72.111741 93.113178 -14.732447 1.749576 4.438665 23.393236 -36.348403 22.494804 84.669644 -53.625561 84.884551 -179.999438 75.748896 -0.001178 -173.51257 43.353466 68.269853 62.366423 -17.064966 120.692816 -94.016431 58.401293 -176.599894 179.99208 75.748896 0.005419 -159.369372 52.960154 -142.411316 -69.886402 -67.363871 -115.260945 112.478306 54.814348 173.643664
-11.2068 69.8215 4.348599999999999 1.431972 27.365497 7.18212 -13.336072 -0.278529 -0.0 -3.319239 -8.120349 -2.864612 -6.933656 14.686065 -116.529745 -5.071161 19.742903 107.893217 -0.001239 0.0 -0.004405 -0.001239 0.0 -0.004405 -81.708013 68.337326 84.818646 24.076772 23.326002 -18.486987 2.118835 30.327561 -58.612131 177.129065 -13.343241 143.436453 93.029074 -51.084043 40.500034 -32.838474 2.604527 -9.320542 -14.227647 19.203951 9.558922 -162.831922 -12.211085 110.35821 0.542605 -1.58967 -0.29526 -1.314174 12.638556 2.166697 -75.404345 72.954542 93.419537 -159.839687 -0.405169 176.37745 7.927329 24.811739 7.003131 -24.725444 -41.234646 -24.982892 155.504046 -3.514498 -161.838631 160.208995 6.584234 -177.062868 171.936434 -38.090415 -35.748593 -168.703868 -25.099066 -142.390297 159.653217 2.600753 -88.799677 -39.565427 -60.019829 -33.46068 -23.561669 -41.522906 5.643491 -175.250235 -46.486128 -102.469145 174.943327 -48.565615 -144.391995 175.453127 -38.98722 -142.972911 72.963711 -72.143147 89.990122 -14.081278 27.065011 0.969374 -19.446121 67.282578 -13.094998 -9.423712 24.927465 -5.184128 0.002895 0.000285 0.001448 4.348139 -36.4234 -172.702417 -64.453876 -40.330912 -74.834642 78.887148 18.982641 -158.380205 0.002895 0.000285 0.001448 10.484601 -19.928986 61.176857 57.70124 54.339368 30.916092 -138.682449 69.495499 58.128369
-13.894300000000001 69.6941 5.8514 1.228618 27.499735 6.87214 -13.047865 1.15215 -0.0 -3.725832 -8.783343 -2.839213 9.973269 3.591257 73.641756 5.655777 -1.431639 -86.661743 0.004958 -0.0 -0.000999 -0.000726 0.0 -0.001601 -142.973738 39.431253 147.389125 33.041061 -1.36191 -6.149365 -1.53195 6.978728 -58.200162 174.794869 -19.774884 143.188172 -103.199238 36.331016 60.11157 -24.360829 -12.034954 32.064894 -90.224904 41.073388 75.797284 -167.090534 -14.98529 114.861399 -160.341679 -5.643915 143.088613 -171.192653 -28.31528 143.810554 -0.00184 -0.060816 -0.019273 8.904549 15.814147 2.136659 -145.173125 12.067127 -141.824012 16.208956 41.614833 5.891023 159.22076 -48.724966 -170.567819 -19.25319 -13.918924 -5.504257 176.204692 -0.494359 69.379236 8.681027 23.054913 -0.622006 -16.054396 -15.915622 0.229311 -16.559119 -50.893097 27.132319 -73.42045 -73.571016 -26.565819 -129.426847 -66.445342 -67.413222 141.109467 35.600735 -129.173003 -7.049422 -11.047708 0.809905 -0.004739 1.770537 -0.555623 78.394176 78.780759 -91.667539 -8.367497 26.426795 -7.362959 147.40926 10.263916 143.222007 -0.000123 -2.6e-05 -0.000184 -1.061316 -40.478944 -180.0 -59.434153 -55.082547 16.964424 9.600005 -25.327283 113.637229 0.008654 -0.000554 0.004327 12.021902 -19.656881 4.325122 -56.00347 47.108688 -17.193901 4.418111 -2.600388 70.969734
